<?xml version="1.0" encoding="UTF-8" standalone="no"?>
<!-- Created with Inkscape (http://www.inkscape.org/) -->

<svg
   xmlns:dc="http://purl.org/dc/elements/1.1/"
   xmlns:cc="http://creativecommons.org/ns#"
   xmlns:rdf="http://www.w3.org/1999/02/22-rdf-syntax-ns#"
   xmlns:svg="http://www.w3.org/2000/svg"
   xmlns="http://www.w3.org/2000/svg"
   xmlns:sodipodi="http://sodipodi.sourceforge.net/DTD/sodipodi-0.dtd"
   xmlns:inkscape="http://www.inkscape.org/namespaces/inkscape"
   width="210mm"
   height="210mm"
   viewBox="0 0 210 210"
   version="1.1"
   id="svg4638"
   inkscape:version="0.92.4 (5da689c313, 2019-01-14)"
   sodipodi:docname="favicon.svg">
  <defs
     id="defs4632" />
  <sodipodi:namedview
     id="base"
     pagecolor="#ffffff"
     bordercolor="#666666"
     borderopacity="1.0"
     inkscape:pageopacity="0.0"
     inkscape:pageshadow="2"
     inkscape:zoom="0.7"
     inkscape:cx="277.92099"
     inkscape:cy="419.99388"
     inkscape:document-units="mm"
     inkscape:current-layer="layer1"
     showgrid="false"
     inkscape:window-width="1920"
     inkscape:window-height="1017"
     inkscape:window-x="-8"
     inkscape:window-y="-8"
     inkscape:window-maximized="1" />
  <metadata
     id="metadata4635">
    <rdf:RDF>
      <cc:Work
         rdf:about="">
        <dc:format>image/svg+xml</dc:format>
        <dc:type
           rdf:resource="http://purl.org/dc/dcmitype/StillImage" />
        <dc:title></dc:title>
      </cc:Work>
    </rdf:RDF>
  </metadata>
  <g
     inkscape:label="Layer 1"
     inkscape:groupmode="layer"
     id="layer1"
     transform="translate(0,-87)">
    <path
       style="display:inline;fill:#e9ddaf;fill-opacity:1;stroke:none;stroke-width:0.29951766;stroke-miterlimit:4;stroke-dasharray:0.8985531, 0.8985531;stroke-dashoffset:0;stroke-opacity:1"
       d="m 90.649364,294.73798 c -9.027305,-0.55209 -26.462126,-3.95404 -36.018618,-7.02811 -11.107941,-3.57309 -18.047379,-7.35443 -23.975889,-13.06455 -4.016572,-3.86862 -6.407305,-7.19677 -9.303511,-12.95144 -4.765763,-9.46944 -6.737743,-18.08793 -6.759416,-29.54189 -0.02865,-15.14244 4.099685,-27.8118 11.918448,-36.57627 2.539363,-2.84651 11.23864,-10.34444 18.659428,-16.08264 10.644754,-8.23113 15.261513,-13.42355 18.257923,-20.53447 2.871727,-6.81502 4.174402,-13.51951 5.084173,-26.16681 0.654222,-9.0946 1.37553,-12.03917 4.355101,-17.77861 6.1269,-11.80205 17.113191,-20.493587 30.118587,-23.827597 5.00488,-1.283038 7.76879,-1.641567 13.90426,-1.803698 13.8238,-0.365272 28.03566,2.760619 39.9801,8.793631 23.21221,11.724214 36.63797,33.411964 35.06506,56.643574 -1.05186,15.53588 -9.72925,32.89493 -24.55079,49.11374 -3.51218,3.84329 -11.15386,11.07782 -14.11082,13.35896 l -2.22315,1.71507 -2.35471,-0.15923 c -5.02366,-0.33975 -9.71146,-3.23811 -13.82773,-8.5494 -5.43854,-7.0174 -7.42148,-15.60106 -4.78228,-20.70132 0.69355,-1.34033 1.2949,-1.89424 6.64179,-6.11807 4.14278,-3.27261 11.38473,-10.36938 13.95838,-13.67852 7.80642,-10.03731 9.75921,-17.62558 6.75988,-26.26793 -1.59359,-4.59175 -4.08562,-8.21137 -8.43134,-12.24634 -5.503,-5.10948 -12.1718,-8.5526 -19.25968,-9.94381 -12.01086,-2.35749 -20.93237,2.41836 -23.04558,12.33672 -0.73718,3.45993 -0.86597,5.80185 -0.48499,8.8174 0.863,6.83033 3.82932,13.30421 9.16135,19.99425 2.74991,3.45033 9.23832,9.73481 13.10179,12.69003 3.15703,2.41484 8.09673,5.68325 9.16429,6.06361 0.60016,0.21384 0.26988,0.5516 -3.17387,3.24571 -5.22583,4.08824 -6.13744,5.67965 -6.08612,10.6244 0.0378,3.64796 0.86052,6.6056 2.98429,10.72915 4.41819,8.57847 12.03758,14.13371 18.65982,13.60478 1.40547,-0.1123 1.8714,-0.33814 3.83561,-1.85938 1.22972,-0.9524 4.33214,-3.70985 6.89427,-6.12767 5.34753,-5.04629 4.71032,-4.96027 6.7748,-0.91455 2.05508,4.02728 3.7625,10.78055 4.79358,18.95974 0.66522,5.27696 0.76043,19.49623 0.15944,23.80988 -0.98697,7.08406 -2.43626,11.98896 -4.63725,15.69409 -5.28641,8.89911 -18.96773,17.37156 -35.13821,21.76015 -12.79539,3.4726 -27.49375,4.85878 -42.068416,3.96742 z"
       id="path4599"
       inkscape:connector-curvature="0" />
    <path
       style="display:inline;fill:none;stroke:#000000;stroke-width:0.29650739px;stroke-linecap:butt;stroke-linejoin:miter;stroke-opacity:1"
       d="m 86.34271,294.70455 c -50.066318,-7.06704 -59.278152,-19.4878 -67.047064,-36.53179 -7.768909,-17.04398 -8.283551,-49.46914 9.843907,-65.68171 18.127459,-16.21258 14.474143,-10.85881 26.559117,-22.49862 12.084973,-11.6398 12.063285,-31.61462 12.926497,-42.83872 0.863208,-11.22409 14.927434,-40.932362 55.498433,-38.022416 40.57098,2.909946 67.8796,29.850916 68.31122,61.444666 0.43158,31.59373 -29.69783,60.15577 -40.91959,68.46989 -14.88404,2.72554 -29.47687,-23.46103 -19.85385,-32.00942 19.23464,-14.20354 28.27821,-27.7926 26.75956,-38.66076 -3.48552,-24.9441 -46.94932,-39.81567 -51.69699,-13.62612 -4.19552,23.14376 24.0742,42.72561 31.4115,46.46698"
       id="path4530"
       inkscape:connector-curvature="0"
       sodipodi:nodetypes="cssssssccssc" />
    <path
       style="display:inline;fill:none;stroke:#000000;stroke-width:0.29650739px;stroke-linecap:butt;stroke-linejoin:miter;stroke-opacity:1"
       d="m 86.342699,294.70455 c 42.836931,3.74135 73.573801,-11.03906 82.119171,-26.03047 8.54535,-14.9914 4.88306,-54.08666 -3.05194,-62.0233"
       id="path4532"
       inkscape:connector-curvature="0"
       sodipodi:nodetypes="csc" />
    <path
       style="display:inline;fill:none;stroke:#000000;stroke-width:0.29697433;stroke-linecap:butt;stroke-linejoin:miter;stroke-miterlimit:4;stroke-dasharray:0.89092307, 0.89092307;stroke-dashoffset:0;stroke-opacity:1"
       d="m 165.40993,206.65078 c -13.12322,-17.9309 -19.75715,-20.59176 -27.27448,-25.43425"
       id="path4534"
       inkscape:connector-curvature="0" />
    <path
       style="display:inline;fill:none;stroke:#000000;stroke-width:0.29650739;stroke-linecap:butt;stroke-linejoin:miter;stroke-miterlimit:4;stroke-dasharray:0.88952218, 0.88952218;stroke-dashoffset:0;stroke-opacity:1"
       d="m 151.51523,219.04585 c 13.8947,-12.39507 -7.82369,-39.57188 -19.85385,-32.00942"
       id="path4550"
       inkscape:connector-curvature="0"
       sodipodi:nodetypes="cc" />
    <path
       style="display:inline;fill:none;stroke:#000000;stroke-width:0.29697433;stroke-linecap:butt;stroke-linejoin:miter;stroke-miterlimit:4;stroke-dasharray:0.89092303, 0.89092303;stroke-dashoffset:0;stroke-opacity:1"
       d="m 151.51523,219.04585 c -15.70888,11.70879 -22.42308,10.53298 -27.45876,20.67423 -5.03567,10.14125 -2.44153,19.40065 2.13635,24.39779 4.57786,4.99714 -19.83745,12.7868 -36.928204,11.31704 -17.090725,-1.46973 -26.399072,-4.70319 -28.077624,-10.72914 -1.678554,-6.02596 6.256425,-31.15861 24.262741,-45.26818 18.006307,-14.10958 39.737567,-26.58127 46.211647,-32.40116"
       id="path4601"
       inkscape:connector-curvature="0" />
    <path
       style="display:inline;fill:none;stroke:#000000;stroke-width:0.29650739;stroke-linecap:butt;stroke-linejoin:miter;stroke-miterlimit:4;stroke-dasharray:0.88952218, 0.88952218;stroke-dashoffset:0;stroke-opacity:1"
       d="m 126.19282,264.11787 c -5.75321,-7.65837 -17.83819,-11.19189 -32.189091,-11.19189 -14.350911,0 -31.860284,-0.96713 -32.816737,11.77979"
       id="path4603"
       inkscape:connector-curvature="0" />
    <path
       style="display:inline;fill:none;stroke:#000000;stroke-width:0.29650739;stroke-linecap:butt;stroke-linejoin:miter;stroke-miterlimit:4;stroke-dasharray:0.88952218, 0.88952218;stroke-dashoffset:0;stroke-opacity:1"
       d="m 106.32242,138.39936 c 0.65776,-4.871 -11.941046,-6.91179 -17.497976,-6.91179 -5.556925,0 -20.229218,-0.65698 -20.875906,5.36512"
       id="path4605"
       inkscape:connector-curvature="0" />
    <path
       style="display:inline;fill:none;stroke:#000000;stroke-width:0.29650739px;stroke-linecap:butt;stroke-linejoin:miter;stroke-opacity:1"
       d="m 106.32242,138.39936 c -0.0719,7.4301 -13.181916,7.58599 -20.033663,7.32617 -6.851746,-0.2598 -18.391135,-0.80563 -18.340219,-8.87284"
       id="path4607"
       inkscape:connector-curvature="0" />
    <path
       style="display:inline;fill:none;stroke:#000000;stroke-width:0.29650739px;stroke-linecap:butt;stroke-linejoin:miter;stroke-opacity:1"
       d="m 86.342699,294.70455 c -6.767908,-7.43818 -13.711026,-25.44257 -14.321412,-51.01615 -0.610372,-25.57358 1.831154,-30.57072 8.54537,-44.68029 6.714218,-14.10956 8.850559,-17.34301 8.545371,-28.80703 -0.305193,-11.46402 -2.621498,-20.36652 -2.823271,-24.47555 -1.067927,-21.74797 6.485564,-43.72068 38.225503,-41.07513 31.73993,2.64553 48.83064,24.98569 51.57739,36.4497 2.74672,11.46403 -3.35709,30.57072 -14.34402,43.21055 -10.98691,12.63982 -21.29309,22.12951 -27.31763,25.9827"
       id="path4609"
       inkscape:connector-curvature="0"
       sodipodi:nodetypes="csssssssc" />
    <path
       style="display:inline;fill:none;stroke:#000000;stroke-width:0.29650739;stroke-linecap:butt;stroke-linejoin:miter;stroke-miterlimit:4;stroke-dasharray:0.88952218, 0.88952218;stroke-dashoffset:0;stroke-opacity:1"
       d="m 134.43,210.29335 c -14.49361,9.43818 -30.82136,24.28262 -34.33108,31.9253 -3.509695,7.64268 -2.661821,27.95652 -2.051439,33.10062 0.934086,3.68912 -0.677082,9.40541 -1.436577,11.67926 0,0 -1.592832,9.04473 -10.268205,7.70602"
       id="path4611"
       inkscape:connector-curvature="0"
       sodipodi:nodetypes="cscsc" />
  </g>
</svg>
