<svg xmlns="http://www.w3.org/2000/svg" width="210mm" height="210mm" viewBox="0 0 210 210"><path style="display:inline;fill:#e9ddaf;fill-opacity:1;stroke:none;stroke-width:.29951766;stroke-miterlimit:4;stroke-dasharray:.8985531,.8985531;stroke-dashoffset:0;stroke-opacity:1" d="M90.65 294.738c-9.028-.552-26.463-3.954-36.02-7.028-11.107-3.573-18.047-7.355-23.975-13.065-4.017-3.868-6.407-7.196-9.304-12.951-4.765-9.47-6.737-18.088-6.76-29.542-.028-15.142 4.1-27.812 11.92-36.576 2.539-2.847 11.238-10.345 18.659-16.083 10.645-8.231 15.261-13.423 18.258-20.534 2.871-6.815 4.174-13.52 5.084-26.167.654-9.095 1.375-12.04 4.355-17.779 6.127-11.802 17.113-20.493 30.119-23.827 5.004-1.283 7.768-1.642 13.904-1.804 13.824-.365 28.036 2.76 39.98 8.794 23.212 11.724 36.638 33.411 35.065 56.643-1.052 15.536-9.73 32.895-24.55 49.114-3.513 3.843-11.155 11.078-14.112 13.359l-2.223 1.715-2.354-.16c-5.024-.34-9.712-3.237-13.828-8.549-5.439-7.017-7.422-15.6-4.782-20.701.693-1.34 1.294-1.894 6.641-6.118 4.143-3.273 11.385-10.37 13.959-13.679 7.806-10.037 9.759-17.625 6.76-26.268-1.594-4.591-4.086-8.211-8.432-12.246-5.503-5.11-12.172-8.553-19.26-9.944-12.01-2.357-20.932 2.419-23.045 12.337-.737 3.46-.866 5.802-.485 8.817.863 6.83 3.83 13.305 9.161 19.995 2.75 3.45 9.239 9.734 13.102 12.69 3.157 2.414 8.097 5.683 9.164 6.063.6.214.27.552-3.173 3.246-5.226 4.088-6.138 5.68-6.087 10.624.038 3.648.861 6.606 2.985 10.73 4.418 8.578 12.037 14.133 18.66 13.604 1.405-.112 1.87-.338 3.835-1.86 1.23-.951 4.332-3.709 6.894-6.127 5.348-5.046 4.71-4.96 6.775-.914 2.055 4.027 3.763 10.78 4.794 18.96.665 5.276.76 19.496.16 23.81-.988 7.083-2.437 11.988-4.638 15.693-5.286 8.9-18.968 17.372-35.138 21.76-12.796 3.473-27.494 4.86-42.069 3.968z" transform="translate(0 -87)"/><path style="display:inline;fill:none;stroke:#000;stroke-width:.29650739px;stroke-linecap:butt;stroke-linejoin:miter;stroke-opacity:1" d="M86.343 294.705c-50.067-7.067-59.278-19.488-67.047-36.532-7.77-17.044-8.284-49.47 9.844-65.682 18.127-16.213 14.474-10.859 26.559-22.499 12.085-11.64 12.063-31.614 12.926-42.838.863-11.224 14.928-40.933 55.499-38.023 40.57 2.91 67.88 29.851 68.31 61.445.432 31.594-29.697 60.156-40.919 68.47-14.884 2.725-29.477-23.461-19.854-32.01 19.235-14.203 28.279-27.792 26.76-38.66-3.486-24.944-46.95-39.816-51.697-13.626-4.196 23.143 24.074 42.725 31.411 46.467" transform="translate(0 -87)"/><path style="display:inline;fill:none;stroke:#000;stroke-width:.29650739px;stroke-linecap:butt;stroke-linejoin:miter;stroke-opacity:1" d="M86.343 294.705c42.837 3.74 73.573-11.04 82.119-26.03 8.545-14.992 4.883-54.088-3.052-62.024" transform="translate(0 -87)"/><path style="display:inline;fill:none;stroke:#000;stroke-width:.29697433;stroke-linecap:butt;stroke-linejoin:miter;stroke-miterlimit:4;stroke-dasharray:.89092307,.89092307;stroke-dashoffset:0;stroke-opacity:1" d="M165.41 206.65c-13.123-17.93-19.757-20.591-27.275-25.433" transform="translate(0 -87)"/><path style="display:inline;fill:none;stroke:#000;stroke-width:.29650739;stroke-linecap:butt;stroke-linejoin:miter;stroke-miterlimit:4;stroke-dasharray:.88952218,.88952218;stroke-dashoffset:0;stroke-opacity:1" d="M151.515 219.046c13.895-12.395-7.823-39.572-19.854-32.01" transform="translate(0 -87)"/><path style="display:inline;fill:none;stroke:#000;stroke-width:.29697433;stroke-linecap:butt;stroke-linejoin:miter;stroke-miterlimit:4;stroke-dasharray:.89092303,.89092303;stroke-dashoffset:0;stroke-opacity:1" d="M151.515 219.046c-15.709 11.709-22.423 10.533-27.459 20.674-5.035 10.141-2.441 19.4 2.137 24.398 4.578 4.997-19.838 12.787-36.928 11.317-17.091-1.47-26.4-4.703-28.078-10.73-1.679-6.025 6.256-31.158 24.263-45.267 18.006-14.11 39.737-26.582 46.211-32.402" transform="translate(0 -87)"/><path style="display:inline;fill:none;stroke:#000;stroke-width:.29650739;stroke-linecap:butt;stroke-linejoin:miter;stroke-miterlimit:4;stroke-dasharray:.88952218,.88952218;stroke-dashoffset:0;stroke-opacity:1" d="M126.193 264.118c-5.753-7.659-17.838-11.192-32.19-11.192-14.35 0-31.86-.967-32.816 11.78M106.322 138.4c.658-4.872-11.94-6.912-17.498-6.912-5.556 0-20.229-.657-20.875 5.365" transform="translate(0 -87)"/><path style="display:inline;fill:none;stroke:#000;stroke-width:.29650739px;stroke-linecap:butt;stroke-linejoin:miter;stroke-opacity:1" d="M106.322 138.4c-.071 7.43-13.181 7.585-20.033 7.326-6.852-.26-18.391-.806-18.34-8.873" transform="translate(0 -87)"/><path style="display:inline;fill:none;stroke:#000;stroke-width:.29650739px;stroke-linecap:butt;stroke-linejoin:miter;stroke-opacity:1" d="M86.343 294.705c-6.768-7.439-13.711-25.443-14.322-51.017-.61-25.573 1.831-30.57 8.546-44.68 6.714-14.11 8.85-17.343 8.545-28.807-.305-11.464-2.621-20.366-2.823-24.475-1.068-21.748 6.485-43.721 38.225-41.076 31.74 2.646 48.83 24.986 51.578 36.45 2.746 11.464-3.357 30.57-14.344 43.21-10.987 12.64-21.293 22.13-27.318 25.983" transform="translate(0 -87)"/><path style="display:inline;fill:none;stroke:#000;stroke-width:.29650739;stroke-linecap:butt;stroke-linejoin:miter;stroke-miterlimit:4;stroke-dasharray:.88952218,.88952218;stroke-dashoffset:0;stroke-opacity:1" d="M134.43 210.293c-14.494 9.439-30.821 24.283-34.331 31.926-3.51 7.642-2.662 27.956-2.052 33.1.935 3.69-.677 9.406-1.436 11.68 0 0-1.593 9.044-10.268 7.706" transform="translate(0 -87)"/></svg>